<?xml version="1.0" encoding="utf-8" ?>
<svg xmlns="http://www.w3.org/2000/svg" width="75.311" height="17.962" viewBox="0 0 75.311 17.962"><path d="M17.688,16.768H13.511l-1.278-3.082H5.272L4.108,16.768H0L6.276,1.2h4.5ZM8.581,4.922,6.3,10.97h4.793ZM32.86,1.2h3.378V16.768h-3.88V7.046l-4.2,4.884h-.593l-4.2-4.884v9.722h-3.88V1.2h3.378l5,5.774Zm13.209,0c5.683,0,8.6,3.537,8.6,7.8,0,4.473-2.83,7.761-9.037,7.761H39.2V1.2Zm-2.99,12.713h2.533c3.9,0,5.067-2.648,5.067-4.931,0-2.671-1.438-4.929-5.112-4.929H43.079v9.86ZM62.392,4.893,57.5,0H75.311V17.812l-4.893-4.893V4.893Zm-.006.981-5.037,5.037v7.051H64.4l5.037-5.037h-7.05Z" fill="#fff"/></svg>