<?xml version="1.0" encoding="utf-8" ?>
<svg xmlns="http://www.w3.org/2000/svg" width="79.017" height="28.439" viewBox="0 0 79.017 28.439"><g transform="translate(0 0)"><path d="M33.412,70.315C28.27,76.353,23.34,83.841,23.291,89.438a6.626,6.626,0,0,0,2.266,5.337,10.992,10.992,0,0,0,7.423,2.717c3.719.005,7.411-1.5,10.3-2.652,4.869-1.947,58.693-25.321,58.693-25.321.519-.26.422-.584-.228-.423-.262.066-58.6,15.874-58.6,15.874a12.89,12.89,0,0,1-3.395.486c-4.483.027-8.472-2.462-8.44-7.706A17.2,17.2,0,0,1,33.412,70.315Z" transform="translate(-23.29 -69.054)" fill="#fff" fill-rule="evenodd"/></g></svg>