<?xml version="1.0" encoding="utf-8" ?>
<svg xmlns="http://www.w3.org/2000/svg" width="83.342" height="16.277" viewBox="0 0 83.342 16.277"><g transform="translate(0 0)"><path d="M212.349,150.908c-.172-.181-.284-.294-.39-.412l-9.8-10.574a.688.688,0,0,0-.441-.189c-.576-.022-1.151,0-1.715,0h-1.269v16.18h3.278v-11.15l.635.681q4.76,5.145,9.511,10.273a.612.612,0,0,0,.5.218c.835-.012,1.671,0,2.506,0h.441V139.743h-3.261Zm-51.62-11.246v.414c0,2.029.015,4.06,0,6.088a10.627,10.627,0,0,1-.181,1.96,4.584,4.584,0,0,1-3.594,3.92,6.284,6.284,0,0,1-3.653-.228,4.533,4.533,0,0,1-2.568-2.318,6.186,6.186,0,0,1-.637-2.7c-.022-2.247,0-4.493-.017-6.74v-.385h-4.033V140c0,1.975-.024,3.949.012,5.924a17.306,17.306,0,0,0,.245,2.712,8.136,8.136,0,0,0,4.41,6.125,10.6,10.6,0,0,0,5.88,1.032,8.313,8.313,0,0,0,8.029-8.291c.1-2.568.044-5.145.054-7.715a.62.62,0,0,0-.032-.13Zm18.013,3.6h9.1v-3.518H175.478v16.17h12.356v-3.55h-9.085v-2.889h6.039V145.92h-6.047Zm50.638,12.652v-16.17h-3.124v16.17Z" transform="translate(-146.038 -139.66)" fill="#fff"/><path d="M374.682,151.1V139.94h3.244v16.17h-2.947a.612.612,0,0,1-.5-.218q-4.751-5.145-9.511-10.273l-.635-.681V156.11H361.05V139.92h2.984a.688.688,0,0,1,.441.189q4.9,5.282,9.8,10.574C374.4,150.811,374.513,150.923,374.682,151.1Z" transform="translate(-308.371 -139.856)" fill="#fff"/><path d="M160.744,139.67h3.92a.626.626,0,0,1,.032.13c0,2.573.044,5.145-.054,7.715a8.313,8.313,0,0,1-8.029,8.291,10.584,10.584,0,0,1-5.88-1.031,8.119,8.119,0,0,1-4.41-6.125,17.307,17.307,0,0,1-.245-2.712c-.037-1.975-.012-3.949-.012-5.924v-.323h4.021v.385c0,2.247,0,4.493.017,6.74a6.187,6.187,0,0,0,.637,2.7,4.533,4.533,0,0,0,2.568,2.318,6.285,6.285,0,0,0,3.653.228,4.591,4.591,0,0,0,3.594-3.92,10.63,10.63,0,0,0,.181-1.96c.022-2.029,0-4.06,0-6.088Z" transform="translate(-146.053 -139.667)" fill="#fff"/><path d="M269.463,143.518v2.658h6.047v3.555h-6.039v2.889h9.085v3.55H266.2V140h12.363v3.511Z" transform="translate(-236.76 -139.917)" fill="#fff"/><path d="M476.574,156.17H473.45V140h3.124Z" transform="translate(-393.232 -139.917)" fill="#fff"/></g></svg>