<?xml version="1.0" encoding="utf-8" ?>
<svg xmlns="http://www.w3.org/2000/svg" width="109.857" height="21.466" viewBox="0 0 109.857 21.466"><g transform="translate(0 0)"><path d="M16.578,8.343a8.242,8.242,0,0,1,11.67.864,8.633,8.633,0,0,1,.432,11.67L22.2,27.359c-1.3-.864-3.457-2.593-2.593-4.322,1.729-2.161,3.887-3.887,5.619-6.051,1.3-1.729.432-5.187-2.161-5.619a3.6,3.6,0,0,0-4.754,3.887c0,2.161,1.729,3.457,3.025,4.754-1.3,1.3-3.025,2.161-3.025,3.887-1.3-1.729-3.457-3.025-4.322-5.187A8.658,8.658,0,0,1,16.578,8.343Z" transform="translate(-13.231 -6.322)" fill="#fff" fill-rule="evenodd"/><g transform="translate(21.657 1.087)"><path d="M72.717,9.774c.432-1.3,1.729-.864,2.593-.864V24.9H72.717V23.6a5.853,5.853,0,0,1-7.347,0,6.148,6.148,0,0,1-.432-8.644,5.952,5.952,0,0,1,7.779-.864Zm-3.887,5.619c-2.161.432-3.887,3.457-2.161,5.619a3.255,3.255,0,0,0,5.619-.432c1.294-2.162-.868-5.187-3.461-5.187Z" transform="translate(-63.367 -8.841)" fill="#fff" fill-rule="evenodd"/></g><path d="M96,18.661h2.593v.864c.864-1.3,2.593-1.3,4.322-.864-.432.864-.864,1.3-.864,2.161-1.729-.432-3.457.432-3.457,1.729v6.483c-.433,1.3-1.729,1.3-2.594,1.3Z" transform="translate(-60.24 -13.183)" fill="#fff" fill-rule="evenodd"/><g transform="translate(42.421 5.088)"><path d="M115.56,18.488c4.322-1.729,8.644,2.593,7.779,6.915s-6.915,6.483-9.945,3.457c-3.457-3.025-2.161-9.508,2.161-10.372Zm1.3,2.161a4.27,4.27,0,0,0-3.025,3.025,3.484,3.484,0,0,0,6.914.862c0-2.159-2.16-4.32-3.888-3.887Z" transform="translate(-111.417 -18.097)" fill="#fff" fill-rule="evenodd"/></g><g transform="translate(56.074 5.279)"><path d="M143,18.735h2.593V19.6a5.952,5.952,0,0,1,7.779.864,5.636,5.636,0,0,1-.428,8.212c-1.729,2.161-5.187,2.161-7.347.864v3.887c-.432,1.3-1.729,1.3-2.593,1.3V18.735Zm5.619,2.161c-2.593.432-3.887,3.457-2.593,5.187,1.3,2.161,4.754,2.161,5.619,0C153.372,23.921,151.212,20.9,148.619,20.9Z" transform="translate(-143 -18.536)" fill="#fff" fill-rule="evenodd"/></g><path d="M177.127,19.01a5.871,5.871,0,0,1,6.915.864c-.432.432-.864,1.3-1.729,1.729a3.345,3.345,0,0,0-5.187,1.3,3.546,3.546,0,0,0,3.025,4.754c.864,0,1.729-.432,2.593-.432a3.375,3.375,0,0,1,1.729,1.729c-3.025,2.593-8.212,1.729-9.508-2.161C173.237,24.2,174.533,20.737,177.127,19.01Z" transform="translate(-104.63 -13.1)" fill="#fff" fill-rule="evenodd"/><g transform="translate(79.54 5.046)"><path d="M197.6,26.212C196.305,22.322,199.328,18,203.218,18a6.9,6.9,0,0,1,6.483,5.619V30.1c-1.3,0-2.161,0-3.025-.864-3.025,2.161-7.779.432-9.076-3.025Zm5.619-5.619a3.8,3.8,0,0,0-2.593,5.619c1.729,2.161,5.187,1.729,6.051-.432a3.809,3.809,0,0,0-3.458-5.187Z" transform="translate(-197.296 -18)" fill="#fff" fill-rule="evenodd"/></g><path d="M230,18.687h2.593v.864c1.3-1.729,4.322-1.3,6.051.432,2.161-2.593,6.483-1.729,7.347,1.3.432,2.593,0,5.619,0,8.212,0,.864-1.3.864-2.593.864,0-2.593.432-5.187,0-7.779a1.977,1.977,0,0,0-3.887,0v7.779h-2.593a52.3,52.3,0,0,0-.432-8.212c-.432-1.729-3.457-1.3-3.457.432a46.98,46.98,0,0,0-.432,7.779H230Z" transform="translate(-136.326 -13.208)" fill="#fff" fill-rule="evenodd"/></g></svg>